<svg width="32" height="32" viewBox="0 0 32 32" fill="none" xmlns="http://www.w3.org/2000/svg">
<path d="M5.99999 12.1318C5.99999 11.8514 6.23559 11.6238 6.52597 11.6238C6.94675 11.6238 7.05194 11.9625 7.05194 12.1318V23.9839H24.2338V12.1427H25.2857V24.4919C25.2857 24.7723 25.0501 24.9998 24.7597 24.9998H6.52597C6.23559 24.9998 5.99999 24.7723 5.99999 24.4919V12.1318Z" fill="currentColor"/>
<path fill-rule="evenodd" clip-rule="evenodd" d="M16.0719 7.5979C16.3571 7.5979 16.5884 7.88213 16.5884 8.11273V11.8881C16.5884 12.1723 16.3571 12.4029 16.0719 12.4029C15.7868 12.4029 15.5554 12.1187 15.5554 11.8881V8.11273C15.5554 7.8285 15.7868 7.5979 16.0719 7.5979Z" fill="currentColor"/>
<path fill-rule="evenodd" clip-rule="evenodd" d="M6.52859 12.5049C6.17526 12.5049 5.92189 12.171 6.02598 11.8399L7.42014 7.36467C7.48862 7.14882 7.69267 7 7.92412 7H23.361C23.5925 7 23.7965 7.14882 23.8636 7.36467L25.2619 11.8399C25.366 12.171 25.1126 12.5049 24.7593 12.5049H6.52859ZM24.0487 11.4752L22.9723 8.02965H8.31335L7.23966 11.4752H24.0487Z" fill="currentColor"/>
</svg>
