<svg width="24" height="24" viewBox="0 0 24 24" fill="none" xmlns="http://www.w3.org/2000/svg"><path fill-rule="evenodd" clip-rule="evenodd" d="M12 22C17.5228 22 22 17.5228 22 12C22 6.47715 17.5228 2 12 2C6.47715 2 2 6.47715 2 12C2 17.5228 6.47715 22 12 22ZM13.8321 15.7735H13.7153C13.1325 15.7735 12.9572 15.6133 12.9572 15.1176V9.72386H10.3333V10.7005H10.4649C11.0333 10.7005 11.2082 10.8611 11.2082 11.3421V15.1176C11.2082 15.6133 11.0333 15.7735 10.4649 15.7735H10.3333V16.7501H13.8321V15.7735ZM11.9953 6.75013C11.4268 6.75013 10.9749 7.20209 10.9749 7.7415C10.9749 8.28092 11.4268 8.73288 11.9953 8.73288C12.5637 8.73288 13.0157 8.28092 13.0157 7.7415C13.0157 7.20209 12.5637 6.75013 11.9953 6.75013Z" fill="#0192D0"/></svg>
