<svg width="32" height="32" viewBox="0 0 32 32" fill="none" xmlns="http://www.w3.org/2000/svg">
<path d="M6.99999 22.576C6.99999 22.2956 7.23559 22.068 7.52597 22.068C7.94675 22.068 8.05194 22.4067 8.05194 22.576V23.984H25.2338V12.1428H26.2857V24.492C26.2857 24.7724 26.0501 25 25.7597 25H7.52597C7.23559 25 6.99999 24.7724 6.99999 24.492V22.576Z" fill="currentColor"/>
<path fill-rule="evenodd" clip-rule="evenodd" d="M7.64285 11.5C7.28794 11.5 6.99999 11.7662 6.99999 11.9821V13.5893C6.99999 13.8555 7.28794 14.0714 7.64285 14.0714C7.99776 14.0714 8.28571 13.8052 8.28571 13.5893V11.9821C8.28571 11.716 7.99776 11.5 7.64285 11.5Z" fill="currentColor"/>
<path fill-rule="evenodd" clip-rule="evenodd" d="M17.0719 7.5979C17.3571 7.5979 17.5884 7.88213 17.5884 8.11273V11.8881C17.5884 12.1723 17.3571 12.4029 17.0719 12.4029C16.7868 12.4029 16.5554 12.1187 16.5554 11.8881V8.11273C16.5554 7.8285 16.7868 7.5979 17.0719 7.5979Z" fill="currentColor"/>
<path fill-rule="evenodd" clip-rule="evenodd" d="M7.52859 12.5049C7.17526 12.5049 6.92189 12.171 7.02598 11.8399L8.42014 7.36467C8.48862 7.14882 8.69267 7 8.92412 7H24.361C24.5925 7 24.7965 7.14882 24.8636 7.36467L26.2619 11.8399C26.366 12.171 26.1126 12.5049 25.7593 12.5049H7.52859ZM25.0487 11.4752L23.9723 8.02965H9.31335L8.23966 11.4752H25.0487Z" fill="currentColor"/>
<path fill-rule="evenodd" clip-rule="evenodd" d="M1 15.5C1 15.2239 1.22386 15 1.5 15H10.5C10.7761 15 11 15.2239 11 15.5C11 15.7761 10.7761 16 10.5 16H1.5C1.22386 16 1 15.7761 1 15.5Z" fill="currentColor"/>
<path fill-rule="evenodd" clip-rule="evenodd" d="M4 18C4 17.7239 4.20893 17.5 4.46667 17.5H10.5333C10.7911 17.5 11 17.7239 11 18C11 18.2761 10.7911 18.5 10.5333 18.5H4.46667C4.20893 18.5 4 18.2761 4 18Z" fill="currentColor"/>
<path fill-rule="evenodd" clip-rule="evenodd" d="M5 20.5C5 20.2239 5.26863 20 5.6 20H10.4C10.7314 20 11 20.2239 11 20.5C11 20.7761 10.7314 21 10.4 21H5.6C5.26863 21 5 20.7761 5 20.5Z" fill="currentColor"/>
</svg>
