<svg width="32" height="32" viewBox="0 0 32 32" fill="none" xmlns="http://www.w3.org/2000/svg">
<path d="M20.7485 19.9467L21.2333 21.0073C21.2866 21.1236 21.3786 21.2178 21.4937 21.2736L25.8127 23.3686C25.8503 23.3868 25.8857 23.4088 25.917 23.4365C26.2379 23.7202 26.7389 24.402 26.4954 25.1733C26.2508 25.948 25.3751 25.9929 24.9124 25.9119C24.8709 25.9047 24.8313 25.8908 24.7932 25.8727L19.4409 23.3376C19.336 23.2879 19.2496 23.2065 19.1939 23.1048L18.6059 22.0325" stroke="currentColor" stroke-linecap="round"/>
<path d="M17.8659 12.3367L16.5928 16.0703C16.5236 16.273 16.3436 16.4177 16.1309 16.4414L11.8549 16.9179C11.8146 16.9224 11.7739 16.9229 11.7339 16.9162C11.3908 16.8589 10.7891 16.6052 10.7181 15.9581C10.6472 15.311 11.1793 14.9309 11.5018 14.7994C11.5393 14.7841 11.5791 14.7756 11.6194 14.7711L14.6171 14.4371C14.8301 14.4133 15.0103 14.2684 15.0793 14.0653L16.2471 10.6256C16.2621 10.5813 16.2821 10.5389 16.3107 10.5019C16.5146 10.2379 17.1008 9.70569 17.8911 9.61763C18.7435 9.52264 19.6772 10.1791 19.7714 11.0378C19.8655 11.8965 20.305 15.9038 20.513 17.8C20.5168 18.1618 20.4272 18.983 20.0389 19.374C19.6507 19.7649 17.928 21.42 17.1152 22.1987M17.1152 22.1987L16.4259 27.5109C16.4182 27.5703 16.4014 27.6283 16.3726 27.6809C16.1346 28.115 15.5515 28.8109 14.8047 28.6492M17.1152 22.1987L16.4234 27.5301C16.4173 27.5768 16.4042 27.6221 16.382 27.6636C16.1502 28.0962 15.5616 28.8131 14.8047 28.6492M14.8047 28.6492C13.811 28.434 13.6103 27.5871 13.6697 27.1459C13.7158 26.8038 14.1526 23.1928 14.3851 21.2663C14.399 21.1504 14.4493 21.042 14.5287 20.9565L17.1055 18.1798" stroke="currentColor" stroke-linecap="round"/>
<path d="M19.5613 5.84578C19.7006 7.11623 18.7921 8.25326 17.5412 8.39267C16.2902 8.53208 15.1573 7.62254 15.018 6.35208C14.8786 5.08163 15.7871 3.9446 17.038 3.80519C18.289 3.66578 19.4219 4.57532 19.5613 5.84578Z" stroke="currentColor"/>
<path d="M14.182 18.3518C14.163 18.0763 13.9242 17.8683 13.6488 17.8873C13.3733 17.9064 13.1653 18.1451 13.1844 18.4206L14.182 18.3518ZM13.7481 19.3276L13.7825 19.8264L14.2813 19.792L14.2469 19.2932L13.7481 19.3276ZM4.76372 19.9474L4.26491 19.9818L4.29932 20.4806L4.79813 20.4462L4.76372 19.9474ZM4.30912 13.3574L3.91684 13.0474L3.797 13.199L3.8103 13.3919L4.30912 13.3574ZM5.89054 11.3566L5.85613 10.8577L5.63544 10.873L5.49827 11.0465L5.89054 11.3566ZM11.4523 10.9729L11.7983 10.6119L11.6386 10.4588L11.4179 10.4741L11.4523 10.9729ZM13.2935 12.7377L13.3279 13.2365C13.5253 13.2229 13.6962 13.0941 13.7636 12.908C13.831 12.722 13.7824 12.5136 13.6395 12.3767L13.2935 12.7377ZM4.70253 12.8291C4.42705 12.8481 4.21913 13.0869 4.23813 13.3623C4.25713 13.6378 4.49587 13.8457 4.77136 13.8267L4.70253 12.8291ZM13.1844 18.4206L13.2493 19.362L14.2469 19.2932L14.182 18.3518L13.1844 18.4206ZM13.7137 18.8288L4.72931 19.4486L4.79813 20.4462L13.7825 19.8264L13.7137 18.8288ZM5.26254 19.913L4.80793 13.323L3.8103 13.3919L4.26491 19.9818L5.26254 19.913ZM4.70139 13.6675L6.28281 11.6666L5.49827 11.0465L3.91684 13.0474L4.70139 13.6675ZM5.92495 11.8554L11.4867 11.4717L11.4179 10.4741L5.85613 10.8577L5.92495 11.8554ZM11.1063 11.3338L12.9475 13.0986L13.6395 12.3767L11.7983 10.6119L11.1063 11.3338ZM13.2591 12.2388L4.70253 12.8291L4.77136 13.8267L13.3279 13.2365L13.2591 12.2388Z" fill="currentColor"/>
</svg>
